<mxfile host="65bd71144e">
    <diagram id="gK3Ktp_HnpO-CIvYq1DM" name="第 1 页">
        <mxGraphModel dx="759" dy="170" grid="1" gridSize="10" guides="1" tooltips="1" connect="1" arrows="1" fold="1" page="1" pageScale="1" pageWidth="827" pageHeight="1169" math="0" shadow="0">
            <root>
                <mxCell id="0"/>
                <mxCell id="1" parent="0"/>
                <mxCell id="4" value="" style="edgeStyle=none;html=1;fontSize=16;fillColor=#e1d5e7;strokeColor=#9673a6;" parent="1" source="2" target="3" edge="1">
                    <mxGeometry relative="1" as="geometry"/>
                </mxCell>
                <mxCell id="96" style="edgeStyle=orthogonalEdgeStyle;curved=1;jumpStyle=arc;html=1;exitX=1;exitY=0;exitDx=0;exitDy=0;entryX=0.5;entryY=0;entryDx=0;entryDy=0;fontSize=16;startArrow=none;startFill=0;endArrow=classic;endFill=1;elbow=vertical;fillColor=#dae8fc;strokeColor=#6c8ebf;" parent="1" source="2" target="88" edge="1">
                    <mxGeometry relative="1" as="geometry">
                        <Array as="points">
                            <mxPoint x="108" y="40"/>
                            <mxPoint x="320" y="40"/>
                        </Array>
                    </mxGeometry>
                </mxCell>
                <mxCell id="97" style="edgeStyle=orthogonalEdgeStyle;curved=1;jumpStyle=arc;html=1;exitX=0.5;exitY=1;exitDx=0;exitDy=0;entryX=0;entryY=0.5;entryDx=0;entryDy=0;fontSize=16;startArrow=none;startFill=0;endArrow=open;endFill=0;elbow=vertical;fillColor=#d5e8d4;strokeColor=#82b366;" parent="1" source="2" target="9" edge="1">
                    <mxGeometry relative="1" as="geometry"/>
                </mxCell>
                <mxCell id="2" value="&lt;font style=&quot;font-size: 16px;&quot;&gt;0:起始的空格&lt;/font&gt;" style="ellipse;whiteSpace=wrap;html=1;aspect=fixed;" parent="1" vertex="1">
                    <mxGeometry x="40" y="80" width="80" height="80" as="geometry"/>
                </mxCell>
                <mxCell id="6" value="" style="edgeStyle=none;html=1;fontSize=16;fillColor=#dae8fc;strokeColor=#6c8ebf;" parent="1" source="3" edge="1">
                    <mxGeometry relative="1" as="geometry">
                        <mxPoint x="280.0000000000002" y="120" as="targetPoint"/>
                    </mxGeometry>
                </mxCell>
                <mxCell id="99" style="edgeStyle=orthogonalEdgeStyle;curved=1;jumpStyle=arc;html=1;entryX=0;entryY=0.5;entryDx=0;entryDy=0;fontSize=16;startArrow=none;startFill=0;endArrow=open;endFill=0;elbow=vertical;fillColor=#d5e8d4;strokeColor=#82b366;" parent="1" source="3" target="9" edge="1">
                    <mxGeometry relative="1" as="geometry">
                        <Array as="points">
                            <mxPoint x="200" y="240"/>
                        </Array>
                    </mxGeometry>
                </mxCell>
                <mxCell id="109" value="" style="edgeStyle=none;html=1;fillColor=#dae8fc;strokeColor=#6c8ebf;" parent="1" source="3" target="88" edge="1">
                    <mxGeometry relative="1" as="geometry"/>
                </mxCell>
                <UserObject label="&lt;font style=&quot;font-size: 16px;&quot;&gt;1:符号位&lt;/font&gt;" tags="" id="3">
                    <mxCell style="ellipse;whiteSpace=wrap;html=1;aspect=fixed;" parent="1" vertex="1">
                        <mxGeometry x="160" y="80" width="80" height="80" as="geometry"/>
                    </mxCell>
                </UserObject>
                <mxCell id="8" value="" style="edgeStyle=none;html=1;fontSize=16;fillColor=#d5e8d4;strokeColor=#82b366;" parent="1" edge="1">
                    <mxGeometry relative="1" as="geometry">
                        <mxPoint x="360.0000000000002" y="120" as="sourcePoint"/>
                        <mxPoint x="400.00000000000296" y="120" as="targetPoint"/>
                    </mxGeometry>
                </mxCell>
                <mxCell id="12" value="" style="edgeStyle=none;html=1;fontSize=16;fillColor=#dae8fc;strokeColor=#6c8ebf;" parent="1" edge="1">
                    <mxGeometry relative="1" as="geometry">
                        <mxPoint x="479.9999999999968" y="120" as="sourcePoint"/>
                        <mxPoint x="519.9999999999968" y="120" as="targetPoint"/>
                    </mxGeometry>
                </mxCell>
                <mxCell id="103" style="edgeStyle=orthogonalEdgeStyle;curved=1;jumpStyle=arc;html=1;entryX=0;entryY=0.5;entryDx=0;entryDy=0;fontSize=16;startArrow=none;startFill=0;endArrow=classic;endFill=1;elbow=vertical;fillColor=#dae8fc;strokeColor=#6c8ebf;" parent="1" source="9" target="90" edge="1">
                    <mxGeometry relative="1" as="geometry"/>
                </mxCell>
                <mxCell id="9" value="&lt;span style=&quot;font-size: 16px;&quot;&gt;4:左侧无整数的小数点&lt;/span&gt;" style="ellipse;whiteSpace=wrap;html=1;aspect=fixed;" parent="1" vertex="1">
                    <mxGeometry x="400" y="200" width="80" height="80" as="geometry"/>
                </mxCell>
                <mxCell id="14" value="" style="edgeStyle=none;html=1;fontSize=16;fillColor=#fff2cc;strokeColor=#d6b656;" parent="1" target="13" edge="1">
                    <mxGeometry relative="1" as="geometry">
                        <mxPoint x="600.000000000003" y="120" as="sourcePoint"/>
                    </mxGeometry>
                </mxCell>
                <mxCell id="16" value="" style="edgeStyle=none;html=1;fontSize=16;fillColor=#e1d5e7;strokeColor=#9673a6;" parent="1" source="13" target="15" edge="1">
                    <mxGeometry relative="1" as="geometry"/>
                </mxCell>
                <mxCell id="106" style="edgeStyle=orthogonalEdgeStyle;curved=1;jumpStyle=arc;html=1;exitX=0.5;exitY=0;exitDx=0;exitDy=0;entryX=0.5;entryY=0;entryDx=0;entryDy=0;fontSize=16;startArrow=none;startFill=0;endArrow=classic;endFill=1;elbow=vertical;fillColor=#dae8fc;strokeColor=#6c8ebf;" parent="1" source="13" target="91" edge="1">
                    <mxGeometry relative="1" as="geometry">
                        <Array as="points">
                            <mxPoint x="680" y="50"/>
                            <mxPoint x="920" y="50"/>
                        </Array>
                    </mxGeometry>
                </mxCell>
                <mxCell id="13" value="&lt;span style=&quot;font-size: 16px;&quot;&gt;6:字符eE&lt;/span&gt;" style="ellipse;whiteSpace=wrap;html=1;aspect=fixed;" parent="1" vertex="1">
                    <mxGeometry x="640" y="80" width="80" height="80" as="geometry"/>
                </mxCell>
                <mxCell id="19" value="" style="edgeStyle=none;html=1;fontSize=16;fillColor=#dae8fc;strokeColor=#6c8ebf;" parent="1" source="15" edge="1">
                    <mxGeometry relative="1" as="geometry">
                        <mxPoint x="880" y="120" as="targetPoint"/>
                    </mxGeometry>
                </mxCell>
                <mxCell id="15" value="&lt;span style=&quot;font-size: 16px;&quot;&gt;7:指数部分的符号位&lt;/span&gt;" style="ellipse;whiteSpace=wrap;html=1;aspect=fixed;" parent="1" vertex="1">
                    <mxGeometry x="760" y="80" width="80" height="80" as="geometry"/>
                </mxCell>
                <mxCell id="21" value="" style="edgeStyle=none;html=1;fontSize=16;fillColor=#f8cecc;strokeColor=#b85450;" parent="1" edge="1">
                    <mxGeometry relative="1" as="geometry">
                        <mxPoint x="960" y="120" as="sourcePoint"/>
                        <mxPoint x="1000" y="120" as="targetPoint"/>
                    </mxGeometry>
                </mxCell>
                <UserObject label="" tags="" id="39">
                    <mxCell style="endArrow=classic;html=1;fontSize=16;curved=1;elbow=vertical;jumpStyle=arc;edgeStyle=orthogonalEdgeStyle;fillColor=#f8cecc;strokeColor=#b85450;" parent="1" edge="1">
                        <mxGeometry width="50" height="50" relative="1" as="geometry">
                            <mxPoint x="70" y="80" as="sourcePoint"/>
                            <mxPoint x="90" y="80" as="targetPoint"/>
                            <Array as="points">
                                <mxPoint x="50" y="80"/>
                                <mxPoint x="50" y="20"/>
                                <mxPoint x="110" y="20"/>
                                <mxPoint x="110" y="80"/>
                            </Array>
                        </mxGeometry>
                    </mxCell>
                </UserObject>
                <mxCell id="69" value="" style="group" parent="1" vertex="1" connectable="0">
                    <mxGeometry x="640" y="280" width="200" height="200" as="geometry"/>
                </mxCell>
                <mxCell id="70" value="" style="group" parent="69" vertex="1" connectable="0">
                    <mxGeometry width="200" height="40" as="geometry"/>
                </mxCell>
                <mxCell id="71" value="" style="endArrow=classic;html=1;fontSize=16;elbow=vertical;jumpStyle=arc;fillColor=#f8cecc;strokeColor=#b85450;" parent="70" edge="1">
                    <mxGeometry width="50" height="50" relative="1" as="geometry">
                        <mxPoint y="19.410000000000025" as="sourcePoint"/>
                        <mxPoint x="80" y="19.410000000000025" as="targetPoint"/>
                    </mxGeometry>
                </mxCell>
                <mxCell id="72" value="空格" style="text;strokeColor=none;align=center;fillColor=none;html=1;verticalAlign=middle;whiteSpace=wrap;rounded=0;fontSize=16;" parent="70" vertex="1">
                    <mxGeometry x="120" width="80" height="40" as="geometry"/>
                </mxCell>
                <mxCell id="73" value="" style="group" parent="69" vertex="1" connectable="0">
                    <mxGeometry y="80" width="200" height="40" as="geometry"/>
                </mxCell>
                <mxCell id="74" value="" style="endArrow=classic;html=1;fontSize=16;elbow=vertical;jumpStyle=arc;fillColor=#dae8fc;strokeColor=#6c8ebf;" parent="73" edge="1">
                    <mxGeometry width="50" height="50" relative="1" as="geometry">
                        <mxPoint y="19.410000000000025" as="sourcePoint"/>
                        <mxPoint x="80" y="19.410000000000025" as="targetPoint"/>
                    </mxGeometry>
                </mxCell>
                <mxCell id="75" value="数字" style="text;strokeColor=#6c8ebf;align=center;fillColor=#dae8fc;html=1;verticalAlign=middle;whiteSpace=wrap;rounded=0;fontSize=16;" parent="73" vertex="1">
                    <mxGeometry x="120" width="80" height="40" as="geometry"/>
                </mxCell>
                <mxCell id="76" value="" style="group" parent="69" vertex="1" connectable="0">
                    <mxGeometry y="120" width="200" height="40" as="geometry"/>
                </mxCell>
                <mxCell id="77" value="" style="endArrow=classic;html=1;fontSize=16;elbow=vertical;jumpStyle=arc;fillColor=#d5e8d4;strokeColor=#82b366;" parent="76" edge="1">
                    <mxGeometry width="50" height="50" relative="1" as="geometry">
                        <mxPoint y="19.410000000000025" as="sourcePoint"/>
                        <mxPoint x="80" y="19.410000000000025" as="targetPoint"/>
                    </mxGeometry>
                </mxCell>
                <mxCell id="78" value="小数点" style="text;strokeColor=#82b366;align=center;fillColor=#d5e8d4;html=1;verticalAlign=middle;whiteSpace=wrap;rounded=0;fontSize=16;" parent="76" vertex="1">
                    <mxGeometry x="120" width="80" height="40" as="geometry"/>
                </mxCell>
                <mxCell id="79" value="" style="group" parent="69" vertex="1" connectable="0">
                    <mxGeometry y="160" width="200" height="40" as="geometry"/>
                </mxCell>
                <mxCell id="80" value="" style="endArrow=classic;html=1;fontSize=16;elbow=vertical;jumpStyle=arc;fillColor=#fff2cc;strokeColor=#d6b656;" parent="79" edge="1">
                    <mxGeometry width="50" height="50" relative="1" as="geometry">
                        <mxPoint y="19.410000000000025" as="sourcePoint"/>
                        <mxPoint x="80" y="19.410000000000025" as="targetPoint"/>
                    </mxGeometry>
                </mxCell>
                <mxCell id="81" value="字符eE" style="text;strokeColor=#d6b656;align=center;fillColor=#fff2cc;html=1;verticalAlign=middle;whiteSpace=wrap;rounded=0;fontSize=16;" parent="79" vertex="1">
                    <mxGeometry x="120" width="80" height="40" as="geometry"/>
                </mxCell>
                <mxCell id="82" value="" style="group" parent="69" vertex="1" connectable="0">
                    <mxGeometry y="40" width="200" height="40" as="geometry"/>
                </mxCell>
                <mxCell id="83" value="" style="endArrow=classic;html=1;fontSize=16;elbow=vertical;jumpStyle=arc;fillColor=#e1d5e7;strokeColor=#9673a6;" parent="82" edge="1">
                    <mxGeometry width="50" height="50" relative="1" as="geometry">
                        <mxPoint y="19.410000000000025" as="sourcePoint"/>
                        <mxPoint x="80" y="19.410000000000025" as="targetPoint"/>
                    </mxGeometry>
                </mxCell>
                <mxCell id="84" value="符号" style="text;strokeColor=#9673a6;align=center;fillColor=#e1d5e7;html=1;verticalAlign=middle;whiteSpace=wrap;rounded=0;fontSize=16;" parent="82" vertex="1">
                    <mxGeometry x="120" width="80" height="40" as="geometry"/>
                </mxCell>
                <mxCell id="85" value="" style="group" parent="82" vertex="1" connectable="0">
                    <mxGeometry y="-40" width="200" height="40" as="geometry"/>
                </mxCell>
                <mxCell id="86" value="" style="endArrow=classic;html=1;fontSize=16;elbow=vertical;jumpStyle=arc;fillColor=#f8cecc;strokeColor=#b85450;" parent="85" edge="1">
                    <mxGeometry width="50" height="50" relative="1" as="geometry">
                        <mxPoint y="19.410000000000025" as="sourcePoint"/>
                        <mxPoint x="80" y="19.410000000000025" as="targetPoint"/>
                    </mxGeometry>
                </mxCell>
                <mxCell id="87" value="空格" style="text;strokeColor=#b85450;align=center;fillColor=#f8cecc;html=1;verticalAlign=middle;whiteSpace=wrap;rounded=0;fontSize=16;" parent="85" vertex="1">
                    <mxGeometry x="120" width="80" height="40" as="geometry"/>
                </mxCell>
                <mxCell id="101" style="edgeStyle=orthogonalEdgeStyle;curved=1;jumpStyle=arc;html=1;exitX=0.5;exitY=0;exitDx=0;exitDy=0;entryX=0.5;entryY=0;entryDx=0;entryDy=0;fontSize=16;startArrow=none;startFill=0;endArrow=classic;endFill=1;elbow=vertical;fillColor=#fff2cc;strokeColor=#d6b656;" parent="1" source="88" target="13" edge="1">
                    <mxGeometry relative="1" as="geometry">
                        <Array as="points">
                            <mxPoint x="320" y="40"/>
                            <mxPoint x="680" y="40"/>
                        </Array>
                    </mxGeometry>
                </mxCell>
                <mxCell id="118" style="edgeStyle=orthogonalEdgeStyle;html=1;exitX=1;exitY=0;exitDx=0;exitDy=0;curved=1;entryX=0;entryY=0;entryDx=0;entryDy=0;fillColor=#f8cecc;strokeColor=#b85450;" edge="1" parent="1" source="88" target="93">
                    <mxGeometry relative="1" as="geometry">
                        <mxPoint x="870" y="30" as="targetPoint"/>
                        <Array as="points">
                            <mxPoint x="348" y="20"/>
                            <mxPoint x="1012" y="20"/>
                        </Array>
                    </mxGeometry>
                </mxCell>
                <mxCell id="88" value="2:整数部分" style="ellipse;shape=doubleEllipse;whiteSpace=wrap;html=1;aspect=fixed;fontSize=16;" parent="1" vertex="1">
                    <mxGeometry x="280" y="80" width="80" height="80" as="geometry"/>
                </mxCell>
                <mxCell id="102" style="edgeStyle=orthogonalEdgeStyle;curved=1;jumpStyle=arc;html=1;exitX=0.5;exitY=0;exitDx=0;exitDy=0;entryX=0.5;entryY=0;entryDx=0;entryDy=0;fontSize=16;startArrow=none;startFill=0;endArrow=classic;endFill=1;elbow=vertical;fillColor=#fff2cc;strokeColor=#d6b656;" parent="1" source="89" target="13" edge="1">
                    <mxGeometry relative="1" as="geometry">
                        <Array as="points">
                            <mxPoint x="440" y="60"/>
                            <mxPoint x="680" y="60"/>
                        </Array>
                    </mxGeometry>
                </mxCell>
                <mxCell id="119" style="edgeStyle=orthogonalEdgeStyle;curved=1;html=1;exitX=1;exitY=0;exitDx=0;exitDy=0;entryX=0;entryY=0;entryDx=0;entryDy=0;fillColor=#f8cecc;strokeColor=#b85450;" edge="1" parent="1" source="89" target="93">
                    <mxGeometry relative="1" as="geometry">
                        <Array as="points">
                            <mxPoint x="468" y="40"/>
                            <mxPoint x="1012" y="40"/>
                        </Array>
                    </mxGeometry>
                </mxCell>
                <mxCell id="89" value="3:左侧有整数的小数点" style="ellipse;shape=doubleEllipse;whiteSpace=wrap;html=1;aspect=fixed;fontSize=16;" parent="1" vertex="1">
                    <mxGeometry x="400" y="80" width="80" height="80" as="geometry"/>
                </mxCell>
                <mxCell id="122" style="edgeStyle=orthogonalEdgeStyle;curved=1;html=1;exitX=1;exitY=0;exitDx=0;exitDy=0;entryX=0;entryY=0;entryDx=0;entryDy=0;fillColor=#f8cecc;strokeColor=#b85450;" edge="1" parent="1" source="90" target="93">
                    <mxGeometry relative="1" as="geometry">
                        <Array as="points">
                            <mxPoint x="588" y="60"/>
                            <mxPoint x="1012" y="60"/>
                        </Array>
                    </mxGeometry>
                </mxCell>
                <mxCell id="90" value="5:小数部分" style="ellipse;shape=doubleEllipse;whiteSpace=wrap;html=1;aspect=fixed;fontSize=16;" parent="1" vertex="1">
                    <mxGeometry x="520" y="80" width="80" height="80" as="geometry"/>
                </mxCell>
                <mxCell id="91" value="8:指数部分的整数" style="ellipse;shape=doubleEllipse;whiteSpace=wrap;html=1;aspect=fixed;fontSize=16;" parent="1" vertex="1">
                    <mxGeometry x="880" y="80" width="80" height="80" as="geometry"/>
                </mxCell>
                <mxCell id="93" value="9:末尾的空格" style="ellipse;shape=doubleEllipse;whiteSpace=wrap;html=1;aspect=fixed;fontSize=16;" parent="1" vertex="1">
                    <mxGeometry x="1000" y="80" width="80" height="80" as="geometry"/>
                </mxCell>
                <UserObject label="" tags="" id="100">
                    <mxCell style="endArrow=classic;html=1;fontSize=16;curved=1;elbow=vertical;jumpStyle=arc;edgeStyle=orthogonalEdgeStyle;fillColor=#dae8fc;strokeColor=#6c8ebf;" parent="1" edge="1">
                        <mxGeometry width="50" height="50" relative="1" as="geometry">
                            <mxPoint x="310" y="160" as="sourcePoint"/>
                            <mxPoint x="330" y="160" as="targetPoint"/>
                            <Array as="points">
                                <mxPoint x="290" y="160"/>
                                <mxPoint x="290" y="220"/>
                                <mxPoint x="350" y="220"/>
                                <mxPoint x="350" y="160"/>
                            </Array>
                        </mxGeometry>
                    </mxCell>
                </UserObject>
                <UserObject label="" tags="" id="104">
                    <mxCell style="endArrow=classic;html=1;fontSize=16;curved=1;elbow=vertical;jumpStyle=arc;edgeStyle=orthogonalEdgeStyle;fillColor=#dae8fc;strokeColor=#6c8ebf;" parent="1" edge="1">
                        <mxGeometry width="50" height="50" relative="1" as="geometry">
                            <mxPoint x="550" y="160" as="sourcePoint"/>
                            <mxPoint x="570" y="160" as="targetPoint"/>
                            <Array as="points">
                                <mxPoint x="530" y="160"/>
                                <mxPoint x="530" y="220"/>
                                <mxPoint x="590" y="220"/>
                                <mxPoint x="590" y="160"/>
                            </Array>
                        </mxGeometry>
                    </mxCell>
                </UserObject>
                <UserObject label="" tags="" id="107">
                    <mxCell style="endArrow=classic;html=1;fontSize=16;curved=1;elbow=vertical;jumpStyle=arc;edgeStyle=orthogonalEdgeStyle;fillColor=#dae8fc;strokeColor=#6c8ebf;" parent="1" edge="1">
                        <mxGeometry width="50" height="50" relative="1" as="geometry">
                            <mxPoint x="910" y="160" as="sourcePoint"/>
                            <mxPoint x="930" y="160" as="targetPoint"/>
                            <Array as="points">
                                <mxPoint x="890" y="160"/>
                                <mxPoint x="890" y="220"/>
                                <mxPoint x="950" y="220"/>
                                <mxPoint x="950" y="160"/>
                            </Array>
                        </mxGeometry>
                    </mxCell>
                </UserObject>
                <mxCell id="115" value="" style="group" parent="1" vertex="1" connectable="0">
                    <mxGeometry x="840" y="280" width="80" height="200" as="geometry"/>
                </mxCell>
                <mxCell id="110" value="' '" style="text;strokeColor=#b85450;align=center;fillColor=#f8cecc;html=1;verticalAlign=middle;whiteSpace=wrap;rounded=0;fontSize=16;" parent="115" vertex="1">
                    <mxGeometry width="80" height="40" as="geometry"/>
                </mxCell>
                <mxCell id="111" value="'s'" style="text;strokeColor=#9673a6;align=center;fillColor=#e1d5e7;html=1;verticalAlign=middle;whiteSpace=wrap;rounded=0;fontSize=16;" parent="115" vertex="1">
                    <mxGeometry y="40" width="80" height="40" as="geometry"/>
                </mxCell>
                <mxCell id="112" value="'d'" style="text;strokeColor=#6c8ebf;align=center;fillColor=#dae8fc;html=1;verticalAlign=middle;whiteSpace=wrap;rounded=0;fontSize=16;" parent="115" vertex="1">
                    <mxGeometry y="80" width="80" height="40" as="geometry"/>
                </mxCell>
                <mxCell id="113" value="'.'" style="text;strokeColor=#82b366;align=center;fillColor=#d5e8d4;html=1;verticalAlign=middle;whiteSpace=wrap;rounded=0;fontSize=16;" parent="115" vertex="1">
                    <mxGeometry y="120" width="80" height="40" as="geometry"/>
                </mxCell>
                <mxCell id="114" value="'e'" style="text;strokeColor=#d6b656;align=center;fillColor=#fff2cc;html=1;verticalAlign=middle;whiteSpace=wrap;rounded=0;fontSize=16;" parent="115" vertex="1">
                    <mxGeometry y="160" width="80" height="40" as="geometry"/>
                </mxCell>
                <mxCell id="117" value="" style="endArrow=classic;html=1;fontSize=16;curved=1;elbow=vertical;jumpStyle=arc;edgeStyle=orthogonalEdgeStyle;fillColor=#f8cecc;strokeColor=#b85450;" parent="1" edge="1">
                    <mxGeometry width="50" height="50" relative="1" as="geometry">
                        <mxPoint x="1030" y="80" as="sourcePoint"/>
                        <mxPoint x="1050" y="80" as="targetPoint"/>
                        <Array as="points">
                            <mxPoint x="1010" y="80"/>
                            <mxPoint x="1010" y="20"/>
                            <mxPoint x="1070" y="20"/>
                            <mxPoint x="1070" y="80"/>
                        </Array>
                    </mxGeometry>
                </mxCell>
            </root>
        </mxGraphModel>
    </diagram>
</mxfile>